<svg width="100.00000000000001" height="100.00000000000001" xmlns="http://www.w3.org/2000/svg">
 <!-- Created with Method Draw - http://github.com/duopixel/Method-Draw/ -->

 <g>
  <title>background</title>
  <rect x="-1" y="-1" width="102" height="102" id="canvas_background" fill="#56aaff"/>
 </g>
 <g>
  <title>Layer 1</title>
  <!-- Created with Method Draw - http://github.com/duopixel/Method-Draw/ -->
  <g id="svg_27" stroke="null">
   <g id="svg_24" transform="matrix(0.18413933306052285,0,0,0.19864894272896957,-3.7395818273007624,-379.68262955471585) " stroke="null">
    <title>background</title>
    <rect fill="none" id="svg_22" height="482" width="642" y="2046.189717" x="212.790971" stroke="null"/>
    <g display="none" id="svg_21" stroke="null">
     <rect fill="none" stroke-width="0" y="2047.189717" x="213.790971" height="400" width="580" id="svg_25" stroke="null"/>
    </g>
   </g>
   <g id="svg_26" transform="matrix(1.0098911556709866,0,0,1.0146931414304805,-558.2446011789511,-2179.530357100989) " stroke="null">
    <title>Layer 1</title>
    <g id="svg_17" stroke="null">
     <path fill="#33666C" id="svg_19" d="m634.2097,2196.36369c-5.28553,-4.97863 -12.31326,-7.72053 -19.78806,-7.72053s-14.50253,2.7419 -19.78805,7.72053c-5.28553,4.97863 -8.19646,11.59829 -8.19646,18.63908s2.91093,13.66046 8.19646,18.63909c5.28552,4.97862 12.31325,7.72053 19.78805,7.72053s14.50253,-2.74191 19.78806,-7.72053c5.28553,-4.97863 8.19645,-11.5983 8.19645,-18.63909s-2.91092,-13.66045 -8.19645,-18.63908zm-4.24577,23.82847c0,0.75094 -0.64862,1.3615 -1.44584,1.3615c-0.7968,0 -1.44543,-0.61056 -1.44543,-1.3615c0,-0.75094 0.64863,-1.3615 1.44543,-1.3615c0.79723,0 1.44584,0.61056 1.44584,1.3615zm-31.0846,-10.37878c0,-0.75093 0.64863,-1.3615 1.44587,-1.3615c0.79679,0 1.44542,0.61057 1.44542,1.3615c0,0.75094 -0.64863,1.3615 -1.44542,1.3615c-0.79724,0 -1.44587,-0.61096 -1.44587,-1.3615zm34.452,20.14699l0,-3.13607c0,-0.8531 -0.73446,-1.54451 -1.63972,-1.54451c-0.90568,0 -1.63971,0.69141 -1.63971,1.54451l0,6.18567c-0.63753,0.49191 -1.30153,0.95366 -1.98944,1.38443l0,-5.51076c0,-0.85269 -0.73402,-1.54451 -1.63972,-1.54451c-0.90526,0 -1.63971,0.69181 -1.63971,1.54451l0,7.24109c-1.12218,0.4903 -2.2892,0.90418 -3.49465,1.2332l0,-26.73569l4.2291,0c0.56537,1.86186 2.38699,3.22899 4.54254,3.22899c2.60562,0 4.72486,-1.9962 4.72486,-4.45052c0,-2.45392 -2.11924,-4.45052 -4.72486,-4.45052c-1.8972,0 -3.53607,1.05944 -4.28719,2.58303l-6.12417,0c-0.90569,0 -1.63972,0.69141 -1.63972,1.54451l0,28.94948c-1.17171,0.16129 -2.36905,0.24616 -3.58731,0.24616c-13.62246,0 -24.70507,-10.43911 -24.70507,-23.2706c0,-1.23963 0.10462,-2.45713 0.3036,-3.64488l5.87352,0c0.66827,1.69494 2.40236,2.90601 4.43108,2.90601c2.60562,0 4.72486,-1.9966 4.72486,-4.45052c0,-2.45391 -2.11924,-4.45051 -4.72486,-4.45051c-2.02872,0 -3.76281,1.21107 -4.43108,2.90601l-5.12112,0c0.98169,-3.05202 2.61201,-5.84058 4.73938,-8.22371l0,1.97729c0,0.8527 0.73403,1.54451 1.63971,1.54451s1.63972,-0.69181 1.63972,-1.54451l0,-5.02729c0.63753,-0.49151 1.30153,-0.95325 1.98901,-1.38403l0,4.35158c0,0.8531 0.73446,1.54451 1.63972,1.54451c0.90569,0 1.63972,-0.69141 1.63972,-1.54451l0,-6.08191c1.00432,-0.43881 2.04409,-0.81649 3.11503,-1.1266l0,27.09768l-3.96094,0c-0.66784,-1.69494 -2.40193,-2.90601 -4.43108,-2.90601c-2.60519,0 -4.72486,1.9966 -4.72486,4.45052c0,2.45432 2.11967,4.45051 4.72486,4.45051c2.02915,0 3.76324,-1.21107 4.43108,-2.90601l5.60066,0c0.90569,0 1.63972,-0.6914 1.63972,-1.5445l0,-29.36256c1.29213,-0.19749 2.61714,-0.30166 3.96734,-0.30166c13.62247,0 24.70508,10.4391 24.70508,23.27059c0,1.23963 -0.10462,2.45714 -0.30361,3.64488l-5.87351,0c-0.66827,-1.69493 -2.40236,-2.90601 -4.43108,-2.90601c-2.60562,0 -4.72487,1.9966 -4.72487,4.45052c0,2.45392 2.11925,4.45052 4.72487,4.45052c2.02872,0 3.76281,-1.21107 4.43108,-2.90601l5.12112,0c-0.98169,3.05202 -2.61202,5.84098 -4.73938,8.22371l0,0l0,-0.00001zm-3.27131,-21.92116c0.79723,0 1.44586,0.61097 1.44586,1.3615c0,0.75094 -0.64863,1.3615 -1.44586,1.3615c-0.7968,0 -1.44543,-0.61056 -1.44543,-1.3615c0,-0.75053 0.64863,-1.3615 1.44543,-1.3615zm-29.83133,13.35719c0,0.75093 -0.64863,1.3615 -1.44542,1.3615c-0.79723,0 -1.44587,-0.61057 -1.44587,-1.3615c0,-0.75054 0.64864,-1.36151 1.44587,-1.36151c0.79679,0 1.44542,0.61097 1.44542,1.36151zm0,0" stroke="null"/>
     <path fill="#33666C" id="svg_18" d="m622.88156,2193.99786c-2.60561,0 -4.72529,1.99619 -4.72529,4.45052c0,0.52247 0.09693,1.02364 0.27329,1.4898l-5.24924,4.12955c-0.37277,0.29322 -0.58841,0.72761 -0.58841,1.18533l0,19.60078l-2.25035,1.14511c-0.83267,-0.6898 -1.92282,-1.10931 -3.11631,-1.10931c-2.60519,0 -4.72487,1.9962 -4.72487,4.45052c0,2.45392 2.11968,4.45051 4.72487,4.45051c2.60561,0 4.72486,-1.99659 4.72486,-4.45051c0,-0.21237 -0.01665,-0.42072 -0.0474,-0.62464l3.10821,-1.58192c0.53034,-0.26948 0.86042,-0.79156 0.86042,-1.35869l0,-19.79947l4.66209,-3.6674c0.69219,0.37486 1.49368,0.59085 2.34813,0.59085c2.60519,0 4.72486,-1.9966 4.72486,-4.45052c-0.00042,-2.45432 -2.11967,-4.45051 -4.72486,-4.45051l0,0zm-17.10174,35.3423c0,-0.75094 0.64863,-1.3615 1.44543,-1.3615c0.79723,0 1.44543,0.61056 1.44543,1.3615c0,0.75053 -0.6482,1.3615 -1.44543,1.3615c-0.7968,0 -1.44543,-0.61097 -1.44543,-1.3615zm15.65589,-30.89179c0,-0.75093 0.64862,-1.3615 1.44585,-1.3615c0.7968,0 1.44543,0.61057 1.44543,1.3615c0,0.75054 -0.64863,1.36151 -1.44543,1.36151c-0.79723,0 -1.44585,-0.61097 -1.44585,-1.36151zm0,0" stroke="null"/>
    </g>
    <line stroke-linecap="undefined" stroke-linejoin="undefined" id="svg_16" y2="2175.308793" x2="619.848549" y1="2190.058614" x1="619.848549" stroke-width="2" fill="none" stroke="#2D6862"/>
    <path id="svg_13" d="m617.93696,2180.30971" opacity="0.5" fill-opacity="null" stroke-opacity="null" stroke-width="null" fill="#BBBBBB" stroke="#ffffff"/>
    <line fill="none" stroke="#ffffff" stroke-width="null" stroke-opacity="null" fill-opacity="null" x1="55.400684" y1="13.880404" x2="39.233908" y2="32.713866" id="svg_29" stroke-linejoin="null" stroke-linecap="null"/>
    <polyline fill="none" stroke="#ffffff" stroke-width="null" stroke-opacity="null" fill-opacity="null" opacity="0.5" points="63.067398071289176,16.873189330101013 63.067398071289176,16.873189330101013 63.067398071289176,16.873189330101013 62.90072631835949,16.873189330101013 62.40072631835949,16.873189330101013 61.7340545654298,16.873189330101013 60.73404693603527,17.373191237449646 58.73403167724621,18.206530928611755 57.067356109619254,18.873202681541443 56.234016418457145,19.37320649623871 55.56734466552746,19.53987443447113 55.06734085083019,19.873210310935974 55.06734085083019,20.039876341819763 54.90067291259777,20.206546187400818 54.73400497436535,20.539878249168396 54.73400497436535,20.873217940330505 54.567337036132926,21.373217940330505 54.567337036132926,21.70655381679535 54.567337036132926,22.206559538841248 54.567337036132926,22.53989541530609 54.73400497436535,23.206565260887146 54.90067291259777,24.039903044700623 55.06734085083019,24.3732408285141 55.234008789062614,25.039910674095154 55.56734466552746,25.539912581443787 55.73401260375988,25.87324845790863 55.73401260375988,26.03991448879242 55.73401260375988,26.206584334373474 55.9006805419923,26.206584334373474 55.9006805419923,26.206584334373474 55.9006805419923,26.373252272605896 56.06734848022472,26.539920210838318 56.06734848022472,26.706590056419373 " id="svg_32" stroke-linecap="round"/>
    <polyline fill="none" stroke="#ffffff" stroke-width="null" stroke-opacity="null" fill-opacity="null" opacity="0.5" points="54.400669097900504,35.70664155483246 54.23400115966808,35.70664155483246 54.06733322143566,34.20663392543793 54.06733322143566,32.53995454311371 54.06733322143566,30.87327516078949 54.06733322143566,29.039937376976013 53.90066528320324,26.539920210838318 53.90066528320324,25.20658051967621 54.400669097900504,23.206565260887146 54.400669097900504,22.206559538841248 54.73400497436535,21.70655381679535 54.90067291259777,21.539885878562927 54.90067291259777,21.373217940330505 55.06734085083019,21.206550002098083 55.56734466552746,21.03988206386566 56.40068435668957,20.873217940330505 57.56735992431652,20.873217940330505 59.400703430175895,20.706546187400818 61.067382812500114,20.706546187400818 63.067398071289176,20.706546187400818 64.40073394775402,20.706546187400818 65.2340774536134,20.706546187400818 66.06741333007824,20.706546187400818 66.56742095947277,20.539878249168396 66.73409271240246,20.539878249168396 66.90075683593761,20.539878249168396 " id="svg_33" stroke-linecap="round"/>
    <polyline fill="none" stroke="#ffffff" stroke-width="null" stroke-opacity="null" fill-opacity="null" opacity="0.5" points="42.06725692749035,26.373252272605896 42.40059280395519,26.706590056419373 43.40060043334972,26.87326180934906 47.06729125976574,28.37326753139496 50.0673065185548,29.53994119167328 53.73399734497082,30.706607222557068 56.90068817138683,31.539950728416443 58.73403167724621,32.53995454311371 60.06737518310558,33.206626296043396 60.400711059570426,33.539965987205505 " id="svg_34" stroke-linecap="round"/>
    <polyline fill="none" stroke="#ffffff" stroke-width="null" stroke-opacity="null" fill-opacity="null" opacity="0.5" points="49.23397064208996,18.206530928611755 49.23397064208996,18.373198866844177 49.067302703857536,20.37321412563324 48.56729888916027,23.373233199119568 47.40062713623058,28.873271346092224 45.56727981567394,34.53996980190277 44.567276000976676,38.039992690086365 43.567268371582145,41.540019392967224 42.90059661865246,44.70670258998871 41.733921051025504,49.87340486049652 40.90058517456066,52.70675599575043 40.23390960693371,54.206767439842224 39.73390579223644,55.540114760398865 39.23390579223644,56.20678269863129 39.23390579223644,56.37345063686371 39.23390579223644,55.87345063686371 39.23390579223644,51.040080428123474 39.73390579223644,46.37338197231293 39.73390579223644,39.54000413417816 39.4005699157716,35.03996980190277 38.567234039306754,31.87328279018402 " id="svg_35" stroke-linecap="round"/>
    <polyline fill="none" stroke="#ffffff" stroke-width="null" stroke-opacity="null" fill-opacity="null" opacity="0.5" points="37.733901977539176,23.70656716823578 40.90058517456066,23.206565260887146 43.7339324951173,22.70656144618988 50.56731414794933,21.87322175502777 55.06734085083019,21.70655381679535 56.56735229492199,21.70655381679535 60.900711059570426,21.70655381679535 62.40072631835949,22.039889693260193 63.067398071289176,22.206559538841248 63.067398071289176,22.373225569725037 63.067398071289176,22.53989541530609 62.73405838012707,24.039903044700623 61.067382812500114,25.539912581443787 58.900695800781364,26.87326180934906 57.56735992431652,27.206591963768005 49.23397064208996,27.70659577846527 45.900615692138786,27.53992784023285 " id="svg_36" stroke-linecap="round"/>
    <polyline fill="none" stroke="#ffffff" stroke-width="null" stroke-opacity="null" fill-opacity="null" opacity="0.5" points="44.06727218627941,19.873210310935974 45.06727981567394,19.873210310935974 46.06728363037121,19.873210310935974 47.567295074463004,20.039876341819763 50.73397827148449,20.206546187400818 52.73399734497082,20.206546187400818 55.400676727295036,20.206546187400818 57.4006919860841,20.206546187400818 60.400711059570426,20.206546187400818 61.067382812500114,20.206546187400818 " id="svg_37" stroke-linecap="round"/>
    <polyline fill="none" stroke="#ffffff" stroke-width="null" stroke-opacity="null" fill-opacity="null" opacity="0.5" points="52.56732559204113,18.039862990379333 52.233989715576286,18.373198866844177 51.23398590087902,20.206546187400818 50.40064620971691,22.87322747707367 49.900642395019645,24.873244643211365 49.40063858032238,27.373259902000427 49.067302703857536,28.873271346092224 48.56729888916027,31.03994119167328 48.40062713623058,33.87329804897308 48.40062713623058,34.70663392543793 48.40062713623058,35.373305678367615 48.40062713623058,35.70664155483246 48.40062713623058,36.0399774312973 48.40062713623058,36.20664918422699 48.40062713623058,36.53998506069183 48.40062713623058,36.70664918422699 48.40062713623058,36.87332093715668 " id="svg_38" stroke-linecap="round"/>
    <polyline fill="none" stroke="#ffffff" stroke-width="0" stroke-opacity="null" fill-opacity="null" opacity="0.5" points="60.06737518310558,17.70652711391449 60.06737518310558,17.70652711391449 60.06737518310558,17.539859175682068 59.90070724487316,17.539859175682068 59.73403930664074,17.539859175682068 59.73403930664074,17.539859175682068 59.56737136840832,17.539859175682068 59.23403167724621,17.70652711391449 59.06736755371105,17.87319505214691 58.900695800781364,17.87319505214691 58.73403167724621,18.039862990379333 58.56736755371105,18.206530928611755 58.400695800781364,18.206530928611755 58.400695800781364,18.206530928611755 58.067363739013786,18.206530928611755 57.73402786254894,18.539868712425232 57.73402786254894,18.539868712425232 57.56735992431652,18.70653474330902 57.4006919860841,18.873202681541443 57.234024047851676,19.039870619773865 57.067356109619254,19.206538558006287 56.90068817138683,19.706542372703552 56.73402023315441,20.039876341819763 56.56735229492199,20.539878249168396 56.40068435668957,20.706546187400818 56.234016418457145,21.03988206386566 56.234016418457145,21.373217940330505 56.06734848022472,21.539885878562927 55.9006805419923,21.70655381679535 55.9006805419923,22.039889693260193 55.73401260375988,22.53989541530609 55.73401260375988,22.87322747707367 55.73401260375988,23.373233199119568 55.56734466552746,24.039903044700623 55.400676727295036,24.3732408285141 55.400676727295036,24.873244643211365 55.400676727295036,25.20658051967621 55.400676727295036,25.539912581443787 55.400676727295036,26.03991448879242 55.400676727295036,26.206584334373474 55.400676727295036,26.539920210838318 55.400676727295036,26.87326180934906 55.400676727295036,27.039924025535583 55.400676727295036,27.373259902000427 55.56734466552746,27.873263716697693 55.73401260375988,28.206599593162537 55.73401260375988,28.539933562278748 55.9006805419923,29.039937376976013 55.9006805419923,29.37327516078949 56.234016418457145,29.53994119167328 56.40068435668957,30.206603407859802 56.73402023315441,30.87327516078949 57.234024047851676,31.539950728416443 57.56735992431652,32.03995454311371 57.900695800781364,32.37328660488129 58.067363739013786,32.70662248134613 58.067363739013786,32.87329041957855 58.400695800781364,33.039958357810974 " id="svg_40" stroke-linecap="round"/>
    <polyline fill="none" stroke="#ffffff" stroke-width="0" stroke-opacity="null" fill-opacity="null" opacity="0.5" points="115.06774902343761,74.70691239833832 115.06774902343761,74.70691239833832 115.06774902343761,74.37357652187347 115.06774902343761,73.70690476894379 115.06774902343761,70.20688188076019 115.06774902343761,66.54018723964691 115.40108489990246,64.206836104393 115.40108489990246,61.206809401512146 115.40108489990246,59.20679795742035 115.7344207763673,56.040114760398865 115.7344207763673,51.70675218105316 115.7344207763673,50.37340867519379 115.7344207763673,48.87339723110199 115.7344207763673,47.37338960170746 115.7344207763673,46.206714034080505 115.7344207763673,44.70670258998871 115.56775665283214,43.873366713523865 115.2344207763673,42.87335908412933 115.06774902343761,42.37335908412933 114.90108489990246,42.206687331199646 114.90108489990246,42.206687331199646 114.90108489990246,42.040019392967224 114.73441314697277,41.8733514547348 114.73441314697277,41.70668351650238 114.56774902343761,41.70668351650238 114.56774902343761,41.540019392967224 114.40107727050793,41.540019392967224 114.40107727050793,41.540019392967224 113.73440551757824,41.540019392967224 112.9010696411134,41.540019392967224 109.73438262939464,41.70668351650238 107.0676956176759,41.8733514547348 105.56768798828136,42.206687331199646 103.40100097656261,43.20669114589691 101.56765747070324,43.873366713523865 101.40099334716808,43.873366713523865 101.40099334716808,44.04003083705902 " id="svg_42" stroke-linecap="round"/>
    <polyline fill="none" stroke="#ffffff" stroke-width="0" stroke-opacity="null" fill-opacity="null" opacity="0.5" points="175.65321350097668,69.44064652919769 175.65321350097668,73.44082963466644 175.65321350097668,81.44118821620941 177.65330505371105,87.441455245018 177.65330505371105,97.44190537929535 179.6534118652345,103.44218003749847 179.6534118652345,113.44263017177582 181.6534881591798,125.44319474697113 181.6534881591798,127.4432862997055 181.6534881591798,129.4433854818344 181.6534881591798,129.4433854818344 181.6534881591798,131.4434770345688 181.6534881591798,133.44356858730316 " id="svg_43" stroke-linecap="round"/>
    <polyline fill="none" stroke="#ffffff" stroke-width="0" stroke-opacity="null" fill-opacity="null" opacity="0.5" points="153.816864013672,83.33224046230316 153.98353576660168,83.49890458583832 154.316864013672,83.99888932704926 154.4835205078126,85.49885880947113 155.15017700195324,91.49874436855316 155.9834899902345,95.49866044521332 157.81678771972668,101.49853837490082 159.8167419433595,105.66512620449066 162.483367919922,109.99837052822113 164.15000915527355,111.83166825771332 165.98329162597668,112.83164536952972 166.31663513183605,112.83164536952972 166.31663513183605,112.49831712245941 166.1499481201173,111.33167588710785 " id="svg_44" stroke-linecap="round"/>
    <polyline fill="none" stroke="#ffffff" stroke-width="0" stroke-opacity="null" fill-opacity="null" opacity="0.5" points="113.81763458251964,78.16567552089691 113.9842987060548,78.49900376796722 114.48429107666027,78.99899613857269 115.81759643554699,81.33227860927582 118.3175506591798,84.16555345058441 120.48416900634777,86.33217942714691 123.65077209472668,88.49880540370941 126.31738281250011,89.66544663906097 128.1506805419923,90.16543138027191 129.98399353027355,90.66542375087738 131.31729125976574,90.83208787441254 131.65061950683605,90.99875199794769 " id="svg_45" stroke-linecap="round"/>
    <line fill="none" stroke="#ffffff" stroke-opacity="null" fill-opacity="null" x1="162.483331" y1="88.665466" x2="155.816799" y2="120.664821" id="svg_46" stroke-linejoin="null" stroke-linecap="round"/>
    <line fill="none" stroke="#ffffff" stroke-opacity="null" fill-opacity="null" x1="157.983422" y1="104.165154" x2="125.15075" y2="87.832149" id="svg_47" stroke-linejoin="null" stroke-linecap="round"/>
    <line fill="none" stroke="#ffffff" stroke-opacity="null" fill-opacity="null" x1="144.650357" y1="91.498742" x2="121.817484" y2="82.165597" id="svg_48" stroke-linejoin="null" stroke-linecap="round"/>
    <line fill="none" stroke="#ffffff" stroke-opacity="null" fill-opacity="null" x1="141.483754" y1="84.665547" x2="109.151072" y2="86.83217" id="svg_49" stroke-linejoin="null" stroke-linecap="round"/>
    <line fill="none" stroke="#ffffff" stroke-opacity="null" fill-opacity="null" x1="118.484217" y1="86.165516" x2="130.150649" y2="112.164993" id="svg_50" stroke-linejoin="null" stroke-linecap="round"/>
   </g>
   <ellipse fill="#E6C36A" stroke-width="3" stroke-opacity="null" cx="20.833532" cy="20.423112" id="svg_41" rx="2.749982" ry="2.749982" stroke="#2D6862"/>
   <line fill="none" stroke="#2D6862" stroke-width="3" stroke-opacity="null" fill-opacity="0" x1="36.083427" y1="62.506164" x2="21.916855" y2="62.672829" id="svg_53" stroke-linejoin="null" stroke-linecap="null"/>
   <line fill="none" stroke="#2D6862" stroke-width="3" stroke-opacity="null" fill-opacity="0" x1="22.08352" y1="64.172819" x2="22.08352" y2="51.672903" id="svg_54" stroke-linejoin="null" stroke-linecap="null" transform="rotate(0.000002775790562736802 15.76550969210538,36.82735826340759) "/>
   <ellipse fill="#E6C36A" stroke="#2D6862" stroke-width="3" stroke-opacity="null" cx="22.166853" cy="48.672923" id="svg_55" rx="2.41665" ry="2.499983"/>
  </g>
  <path id="svg_1" d="m64.89578,18.7829c2.92388,0 5.67297,0.98595 7.73811,2.77456c2.06989,1.78944 3.20791,4.17372 3.20791,6.711l4.50739,0c0,-7.37048 -6.93351,-13.36554 -15.45436,-13.36554l0,3.87998l0.00095,0zm0.0057,-6.87955c10.42355,0 18.90165,7.34347 18.90165,16.3692l4.5055,0c0,-11.16536 -10.5005,-20.25 -23.4081,-20.25l0,3.8808l0.00095,0zm6.23152,13.65682c0,1.48506 -1.39734,2.68947 -3.1205,2.68947s-3.12051,-1.20441 -3.12051,-2.68947c0,-1.48342 1.39734,-2.68784 3.12051,-2.68784s3.1205,1.2036 3.1205,2.68784z" stroke-width="1.5" fill="#FFAFCC" stroke="#2D6862"/>
  <line fill="none" stroke-width="3" stroke-opacity="null" fill-opacity="null" x1="46.916688" y1="46.839601" x2="46.750022" y2="19.339787" id="svg_2" stroke-linejoin="null" stroke-linecap="null" stroke="#2D6862"/>
  <line fill="none" stroke="#2D6862" stroke-width="3" stroke-opacity="null" fill-opacity="null" x1="46.08336" y1="20.839776" x2="24.083507" y2="20.839776" id="svg_3" stroke-linejoin="null" stroke-linecap="null"/>
 </g>
</svg>